<svg xmlns="http://www.w3.org/2000/svg" width="744" height="129" viewBox="0 0 744 129">
  <g fill="none">
    <path fill="#00326E" d="M225.972 3.468L220.488 3.468C220.051 3.468 219.697 3.822 219.697 4.259L219.697 37.406C219.697 42.221 219.386 45.793 217.523 48.123 215.892 50.22 213.096 51.385 208.281 51.385L205.64 51.385C200.825 51.385 198.029 50.22 196.321 48.046 194.535 45.794 194.224 42.144 194.224 37.407L194.224 4.259C194.224 3.822 193.87 3.468 193.433 3.468L187.949 3.468C187.512 3.468 187.158 3.822 187.158 4.259L187.158 39.425C187.158 45.405 188.168 50.143 191.352 53.327 194.148 55.968 198.497 57.443 205.02 57.443L208.825 57.443C215.116 57.443 219.309 56.123 222.105 53.638 225.6 50.531 226.764 45.639 226.764 39.426L226.764 4.259C226.763 3.822 226.409 3.468 225.972 3.468zM237.804 56.977L243.288 56.977C243.725 56.977 244.079 56.623 244.079 56.186L244.079 32.747 249.904 32.747 266.753 56.642C266.901 56.852 267.142 56.977 267.4 56.977L273.543 56.977C274.184 56.977 274.559 56.255 274.19 55.731L255.418 29.019 272.191 4.709C272.553 4.184 272.177 3.468 271.54 3.468L265.931 3.468C265.67 3.468 265.426 3.597 265.278 3.812L250.292 25.679C249.749 26.533 249.36 26.766 248.584 26.766L244.077 26.766 244.077 4.262C244.078 3.824 243.724 3.468 243.286 3.468L237.804 3.468C237.367 3.468 237.013 3.822 237.013 4.259L237.013 56.185C237.013 56.622 237.367 56.977 237.804 56.977zM330.018 7.429C326.99 4.4 322.252 3.468 316.195 3.468L296.561 3.468C296.124 3.468 295.77 3.822 295.77 4.259L295.77 56.185C295.77 56.622 296.124 56.976 296.561 56.976L316.195 56.976C322.33 56.976 326.99 56.044 330.018 53.015 332.659 50.297 335.455 45.404 335.455 30.261 335.455 15.117 332.659 10.147 330.018 7.429zM324.582 48.667C322.718 50.531 319.845 51.385 315.651 51.385L302.837 51.385 302.837 9.06 315.574 9.06C319.923 9.06 322.796 9.914 324.583 11.855 327.611 15.04 327.922 21.019 327.922 30.184 327.922 39.347 327.689 45.483 324.582 48.667zM369.403 49.512C369.1 49.221 368.616 49.212 368.315 49.505 367.812 49.993 367.306 50.439 366.673 50.842 364.965 51.774 362.868 52.085 360.305 52.085L356.422 52.085C353.937 52.085 352.229 51.463 351.141 50.299 349.355 48.591 348.966 45.406 348.888 40.98L366.284 40.98C372.187 40.98 373.196 38.495 373.196 34.301L373.196 31.66C373.196 27.156 371.953 24.049 369.546 22.03 367.449 20.166 364.265 19.156 359.761 19.156L355.878 19.156C351.995 19.156 348.267 19.933 345.782 22.496 343.608 24.593 341.899 28.165 341.899 38.261 341.899 48.513 343.685 52.163 346.015 54.337 348.578 56.744 352.15 57.444 355.878 57.444L360.382 57.444C364.576 57.444 367.372 56.822 369.624 55.58 370.653 54.937 371.469 54.24 372.293 53.358 372.585 53.045 372.563 52.549 372.254 52.253L369.403 49.512zM351.141 26.301C352.228 25.136 353.859 24.515 356.344 24.515L359.295 24.515C361.78 24.515 363.644 24.981 364.887 26.224 366.207 27.467 366.595 29.33 366.595 31.505L366.595 33.835C366.595 35.31 365.974 36.009 364.498 36.009L348.888 36.009C348.966 31.426 349.276 28.086 351.141 26.301zM433.338 56.185L433.338 32.125C433.338 27.232 432.328 24.359 430.542 22.495 428.756 20.553 425.883 19.155 420.601 19.155L416.096 19.155C413.378 19.155 411.126 19.466 409.262 20.475 408.253 21.019 407.321 21.795 406.621 22.728L406.466 22.728C405.767 21.718 404.836 20.942 403.748 20.398 401.962 19.389 399.71 19.155 396.759 19.155L392.099 19.155C386.896 19.155 383.944 20.553 382.158 22.495 380.449 24.359 379.44 27.232 379.44 32.125L379.44 56.185C379.44 56.622 379.794 56.976 380.231 56.976L385.327 56.976C385.764 56.976 386.118 56.622 386.118 56.185L386.118 35.62C386.118 30.417 386.195 28.32 387.283 26.611 388.448 24.825 390.545 24.514 392.874 24.514L396.757 24.514C399.242 24.514 401.106 25.058 402.116 26.688 402.97 28.086 403.048 29.717 403.048 34.998L403.048 56.185C403.048 56.622 403.402 56.976 403.839 56.976L408.935 56.976C409.372 56.976 409.726 56.622 409.726 56.185L409.726 34.921C409.726 29.951 409.726 28.242 410.813 26.611 411.9 25.058 413.919 24.514 416.094 24.514L419.899 24.514C422.152 24.514 424.326 24.825 425.491 26.611 426.5 28.32 426.656 30.416 426.656 35.62L426.656 56.186C426.656 56.623 427.01 56.977 427.447 56.977L432.543 56.977C432.983 56.977 433.338 56.622 433.338 56.185zM467.579 22.029C465.482 20.165 462.298 19.155 457.794 19.155L453.911 19.155C450.028 19.155 446.3 19.932 443.815 22.495 441.641 24.592 439.932 28.164 439.932 38.26 439.932 48.512 441.718 52.162 444.048 54.336 446.611 56.743 450.183 57.443 453.911 57.443L458.415 57.443C462.609 57.443 465.405 56.821 467.657 55.579 468.686 54.936 469.502 54.239 470.326 53.357 470.618 53.044 470.596 52.548 470.287 52.252L467.436 49.513C467.133 49.222 466.649 49.213 466.348 49.506 465.845 49.994 465.339 50.44 464.706 50.843 462.998 51.775 460.901 52.086 458.338 52.086L454.455 52.086C451.97 52.086 450.262 51.464 449.174 50.3 447.388 48.592 446.999 45.407 446.921 40.981L464.317 40.981C470.22 40.981 471.229 38.496 471.229 34.302L471.229 31.661C471.229 27.155 469.987 24.048 467.579 22.029zM464.628 33.834C464.628 35.309 464.007 36.008 462.531 36.008L446.921 36.008C446.999 31.426 447.31 28.086 449.174 26.3 450.261 25.135 451.892 24.514 454.377 24.514L457.328 24.514C459.813 24.514 461.677 24.98 462.92 26.223 464.24 27.466 464.628 29.329 464.628 31.504L464.628 33.834zM495.767 19.155L490.409 19.155C485.206 19.155 482.254 20.553 480.468 22.495 478.759 24.359 477.75 27.232 477.75 32.125L477.75 56.185C477.75 56.622 478.104 56.976 478.541 56.976L483.637 56.976C484.074 56.976 484.428 56.622 484.428 56.185L484.428 35.62C484.428 30.417 484.505 28.32 485.593 26.611 486.758 24.825 488.777 24.514 491.184 24.514L495.067 24.514C497.319 24.514 499.493 24.825 500.659 26.611 501.668 28.32 501.824 30.416 501.824 35.62L501.824 56.186C501.824 56.623 502.178 56.977 502.615 56.977L507.711 56.977C508.148 56.977 508.502 56.623 508.502 56.186L508.502 32.126C508.502 27.233 507.493 24.36 505.706 22.496 503.922 20.553 501.048 19.155 495.767 19.155zM514.185 25.136L519.063 25.136 519.063 44.163C519.063 48.978 520.073 51.929 521.859 53.794 523.723 55.658 526.285 56.978 531.411 56.978L535.59 56.978C536.027 56.978 536.381 56.624 536.381 56.187L536.381 52.411C536.381 51.974 536.027 51.62 535.59 51.62L532.188 51.62C529.858 51.62 527.994 50.999 526.985 49.446 525.975 48.048 525.742 46.262 525.742 40.515L525.742 25.136 533.338 25.136C533.775 25.136 534.129 24.782 534.129 24.345L534.129 20.569C534.129 20.132 533.775 19.778 533.338 19.778L525.742 19.778 525.742 7.366C525.742 6.929 525.388 6.575 524.951 6.575L519.855 6.575C519.418 6.575 519.064 6.929 519.064 7.366L519.064 19.777 514.186 19.777C513.749 19.777 513.395 20.131 513.395 20.568L513.395 24.344C513.393 24.781 513.748 25.136 514.185 25.136zM545.622 11.545C548.185 11.545 549.971 9.681 549.971 7.273 549.971 4.788 548.263 2.924 545.622 2.924 542.981 2.924 541.35 4.788 541.35 7.273 541.351 9.681 543.059 11.545 545.622 11.545zM548.961 56.185L548.961 20.568C548.961 20.131 548.607 19.777 548.17 19.777L543.074 19.777C542.637 19.777 542.283 20.131 542.283 20.568L542.283 56.185C542.283 56.622 542.637 56.976 543.074 56.976L548.17 56.976C548.607 56.977 548.961 56.622 548.961 56.185zM574.662 33.756C567.206 33.756 562.858 34.532 559.362 37.639 557.421 39.425 556.178 42.143 556.178 46.026 556.178 49.909 557.343 52.628 559.517 54.491 561.692 56.51 564.954 57.442 568.992 57.442L574.272 57.442C579.242 57.442 582.272 56.665 584.058 54.801 586.077 52.704 586.621 49.287 586.621 44.161L586.621 32.125C586.621 27.077 585.611 24.359 583.903 22.495 582.039 20.475 578.933 19.155 573.962 19.155L569.923 19.155C565.103 19.155 561.244 20.117 558.605 22.815 558.319 23.107 558.325 23.583 558.595 23.889L561.136 26.761C561.422 27.084 561.924 27.132 562.241 26.841 564.288 24.959 566.661 24.437 570.078 24.437L573.417 24.437C575.669 24.437 577.222 24.826 578.154 25.68 579.63 27 579.941 29.252 579.941 32.748L579.941 33.757 574.662 33.757 574.662 33.756zM579.943 45.483C579.943 47.735 579.632 49.444 578.778 50.531 577.846 51.696 576.215 52.162 573.575 52.162L570.391 52.162C567.517 52.162 566.042 51.618 564.799 50.376 563.634 49.367 563.013 47.813 563.013 45.794 563.013 43.775 563.557 42.299 564.411 41.29 566.353 39.193 569.848 38.727 574.352 38.727L579.944 38.727 579.944 45.483 579.943 45.483zM213.25 103.852C214.959 103.464 216.434 102.765 217.676 101.833 220.938 99.503 222.414 95.387 222.414 88.397 222.414 82.883 221.249 78.379 217.909 75.661 215.424 73.641 211.929 72.632 206.803 72.632L187.946 72.632C187.509 72.632 187.155 72.986 187.155 73.423L187.155 125.349C187.155 125.786 187.509 126.14 187.946 126.14L193.43 126.14C193.867 126.14 194.221 125.786 194.221 125.349L194.221 104.783 206.026 104.783 216.756 125.71C216.891 125.974 217.163 126.14 217.46 126.14L223.444 126.14C224.037 126.14 224.419 125.513 224.147 124.986L213.25 103.852zM205.173 99.193L194.223 99.193 194.223 78.224 204.785 78.224C208.124 78.224 210.609 78.612 212.318 79.699 214.259 81.019 215.113 83.427 215.113 87.465L215.113 89.562C215.113 93.29 214.725 95.62 213.172 97.095 211.697 98.571 209.211 99.193 205.173 99.193zM256.047 91.193C253.95 89.329 250.766 88.319 246.262 88.319L242.379 88.319C238.496 88.319 234.768 89.096 232.283 91.659 230.109 93.756 228.4 97.328 228.4 107.424 228.4 117.676 230.186 121.326 232.516 123.5 235.079 125.907 238.651 126.607 242.379 126.607L246.883 126.607C251.077 126.607 253.873 125.985 256.125 124.743 257.154 124.1 257.97 123.403 258.794 122.521 259.086 122.208 259.064 121.712 258.755 121.416L255.904 118.677C255.601 118.386 255.118 118.377 254.816 118.67 254.312 119.158 253.807 119.604 253.174 120.007 251.466 120.939 249.369 121.25 246.806 121.25L242.923 121.25C240.438 121.25 238.73 120.628 237.642 119.464 235.856 117.756 235.467 114.571 235.39 110.145L252.786 110.145C258.688 110.145 259.698 107.66 259.698 103.466L259.698 100.825C259.697 96.319 258.454 93.212 256.047 91.193zM253.095 102.998C253.095 104.473 252.474 105.172 250.998 105.172L235.388 105.172C235.465 100.59 235.776 97.25 237.64 95.464 238.727 94.299 240.358 93.677 242.843 93.677L245.794 93.677C248.279 93.677 250.143 94.143 251.386 95.386 252.706 96.629 253.094 98.492 253.094 100.666L253.094 102.998 253.095 102.998zM289.989 106.804C288.901 105.949 287.504 105.484 285.873 105.173L275.699 103.153C274.301 102.921 273.447 102.377 272.903 101.678 272.36 100.901 272.127 99.891 272.127 98.571 272.127 96.474 272.593 95.697 273.214 95.076 274.224 93.989 275.855 93.678 278.573 93.678L280.98 93.678C283.784 93.678 285.892 94.437 287.647 96.357 287.96 96.699 288.484 96.736 288.812 96.408L291.888 93.332C292.176 93.044 292.209 92.571 291.944 92.262 289.564 89.483 286.244 88.319 281.213 88.319L278.028 88.319C273.213 88.319 269.796 89.562 267.932 91.892 266.612 93.445 265.991 95.464 265.991 97.794L265.991 99.502C265.991 102.22 266.457 104.318 267.7 105.793 268.787 107.113 270.651 108.046 272.903 108.434L283.077 110.298C284.708 110.608 285.407 111.152 285.873 111.851 286.572 112.783 286.727 113.792 286.727 115.889 286.727 117.365 286.649 119.074 285.407 120.083 284.32 121.015 282.534 121.248 280.049 121.248L277.02 121.248C273.318 121.248 270.921 120.334 268.933 117.789 268.638 117.411 268.092 117.351 267.746 117.684L264.7 120.617C264.417 120.89 264.373 121.34 264.606 121.657 267.508 125.613 270.544 126.607 276.632 126.607L280.515 126.607C285.098 126.607 288.204 125.675 290.145 124.044 292.242 122.257 293.096 119.772 293.096 116.822L293.096 114.569C293.095 111.386 292.474 108.59 289.989 106.804zM326.108 91.193C324.011 89.329 320.827 88.319 316.323 88.319L312.44 88.319C308.557 88.319 304.829 89.096 302.344 91.659 300.17 93.756 298.461 97.328 298.461 107.424 298.461 117.676 300.247 121.326 302.577 123.5 305.14 125.907 308.712 126.607 312.44 126.607L316.944 126.607C321.138 126.607 323.934 125.985 326.186 124.743 327.215 124.1 328.031 123.403 328.855 122.521 329.147 122.208 329.125 121.712 328.816 121.416L325.965 118.677C325.662 118.386 325.179 118.377 324.877 118.67 324.373 119.158 323.868 119.604 323.235 120.007 321.527 120.939 319.43 121.25 316.867 121.25L312.984 121.25C310.499 121.25 308.791 120.628 307.704 119.464 305.917 117.756 305.529 114.571 305.452 110.145L322.848 110.145C328.75 110.145 329.76 107.66 329.76 103.466L329.76 100.825C329.758 96.319 328.515 93.212 326.108 91.193zM323.156 102.998C323.156 104.473 322.535 105.172 321.059 105.172L305.449 105.172C305.526 100.59 305.837 97.25 307.701 95.464 308.788 94.299 310.419 93.677 312.904 93.677L315.855 93.677C318.34 93.677 320.204 94.143 321.447 95.386 322.767 96.629 323.155 98.492 323.155 100.666L323.155 102.998 323.156 102.998zM352.128 88.32L348.089 88.32C343.269 88.32 339.41 89.282 336.771 91.98 336.485 92.272 336.491 92.748 336.761 93.054L339.302 95.926C339.588 96.249 340.09 96.297 340.407 96.006 342.454 94.124 344.827 93.602 348.244 93.602L351.583 93.602C353.835 93.602 355.388 93.991 356.32 94.845 357.796 96.165 358.106 98.417 358.106 101.913L358.106 102.922 352.825 102.922C345.369 102.922 341.021 103.698 337.525 106.805 335.584 108.591 334.341 111.309 334.341 115.192 334.341 119.075 335.506 121.793 337.68 123.657 339.855 125.676 343.117 126.608 347.155 126.608L352.435 126.608C357.405 126.608 360.434 125.831 362.221 123.967 364.24 121.87 364.784 118.453 364.784 113.327L364.784 101.29C364.784 96.242 363.774 93.524 362.066 91.66 360.205 89.64 357.099 88.32 352.128 88.32zM358.108 114.647C358.108 116.899 357.797 118.608 356.943 119.695 356.011 120.86 354.38 121.326 351.74 121.326L348.556 121.326C345.682 121.326 344.207 120.782 342.964 119.54 341.799 118.531 341.178 116.977 341.178 114.958 341.178 112.939 341.722 111.463 342.576 110.454 344.518 108.357 348.013 107.891 352.517 107.891L358.109 107.891 358.109 114.647 358.108 114.647zM389.406 88.32L384.994 88.32C380.101 88.32 377.461 89.563 375.674 91.427 373.733 93.291 372.646 96.32 372.646 101.29L372.646 125.35C372.646 125.787 373 126.141 373.437 126.141L378.533 126.141C378.97 126.141 379.324 125.787 379.324 125.35L379.324 104.862C379.324 99.115 379.479 97.329 380.412 95.853 381.499 94.3 383.363 93.679 385.693 93.679L389.406 93.679C389.843 93.679 390.197 93.325 390.197 92.888L390.197 89.112C390.197 88.674 389.843 88.32 389.406 88.32zM418.829 118.655C418.522 118.354 418.021 118.348 417.723 118.659 417.16 119.247 416.551 119.649 415.897 120.006 414.188 121.015 411.936 121.249 409.683 121.249L407.198 121.249C404.247 121.249 402.228 120.55 401.063 118.22 400.131 116.279 399.743 112.706 399.743 107.425 399.743 102.222 400.132 98.805 401.063 96.786 402.228 94.301 404.403 93.679 407.198 93.679L409.916 93.679C412.246 93.679 414.11 93.99 415.508 94.766 416.166 95.125 416.732 95.53 417.313 96.159 417.614 96.485 418.128 96.5 418.445 96.189L421.518 93.173C421.81 92.887 421.844 92.412 421.58 92.101 420.529 90.864 419.359 90.026 418.072 89.484 416.13 88.707 413.179 88.318 410.228 88.318L406.733 88.318C402.694 88.318 398.967 89.173 396.404 91.891 394.463 94.065 392.754 97.482 392.754 107.112L392.754 107.889C392.832 117.752 394.541 121.324 396.793 123.421 399.278 125.828 402.928 126.606 406.734 126.606L409.762 126.606C413.49 126.606 416.519 126.062 418.693 124.897 419.806 124.308 420.753 123.498 421.674 122.514 421.965 122.203 421.947 121.709 421.643 121.411L418.829 118.655zM446.809 88.32L443.159 88.32C440.208 88.32 437.49 88.864 435.548 90.417L435.471 90.417 435.471 70.162C435.471 69.725 435.117 69.371 434.68 69.371L429.584 69.371C429.147 69.371 428.793 69.725 428.793 70.162L428.793 125.35C428.793 125.787 429.147 126.141 429.584 126.141L434.68 126.141C435.117 126.141 435.471 125.787 435.471 125.35L435.471 104.784C435.471 99.503 435.626 97.251 436.636 95.775 437.723 94.222 439.742 93.678 441.916 93.678L446.11 93.678C448.284 93.678 450.536 93.911 451.702 95.775 452.789 97.406 452.867 99.736 452.867 104.784L452.867 125.35C452.867 125.787 453.221 126.141 453.658 126.141L458.754 126.141C459.191 126.141 459.545 125.787 459.545 125.35L459.545 101.29C459.545 96.397 458.535 93.524 456.749 91.66 454.964 89.718 452.09 88.32 446.809 88.32zM502.539 120.549L496.497 120.549 496.497 78.224 502.384 78.224C502.821 78.224 503.175 77.87 503.175 77.433L503.175 73.424C503.175 72.987 502.821 72.633 502.384 72.633L483.231 72.633C482.794 72.633 482.44 72.987 482.44 73.424L482.44 77.433C482.44 77.87 482.794 78.224 483.231 78.224L489.43 78.224 489.43 120.549 483.231 120.549C482.794 120.549 482.44 120.903 482.44 121.34L482.44 125.349C482.44 125.786 482.794 126.14 483.231 126.14L502.539 126.14C502.976 126.14 503.33 125.786 503.33 125.349L503.33 121.34C503.331 120.904 502.976 120.549 502.539 120.549zM528.224 88.32L522.866 88.32C517.663 88.32 514.711 89.718 512.925 91.66 511.216 93.524 510.207 96.397 510.207 101.29L510.207 125.35C510.207 125.787 510.561 126.141 510.998 126.141L516.094 126.141C516.531 126.141 516.885 125.787 516.885 125.35L516.885 104.784C516.885 99.581 516.962 97.484 518.05 95.775 519.215 93.989 521.234 93.678 523.641 93.678L527.524 93.678C529.776 93.678 531.95 93.989 533.116 95.775 534.125 97.484 534.281 99.58 534.281 104.784L534.281 125.35C534.281 125.787 534.635 126.141 535.072 126.141L540.168 126.141C540.605 126.141 540.959 125.787 540.959 125.35L540.959 101.29C540.959 96.397 539.95 93.524 538.163 91.66 536.379 89.718 533.505 88.32 528.224 88.32zM572.107 106.804C571.019 105.949 569.622 105.484 567.991 105.173L557.817 103.153C556.419 102.921 555.565 102.377 555.021 101.678 554.478 100.901 554.245 99.891 554.245 98.571 554.245 96.474 554.711 95.697 555.332 95.076 556.341 93.989 557.973 93.678 560.691 93.678L563.098 93.678C565.902 93.678 568.01 94.437 569.765 96.357 570.078 96.699 570.602 96.736 570.93 96.408L574.006 93.332C574.294 93.044 574.327 92.571 574.062 92.262 571.682 89.483 568.362 88.319 563.331 88.319L560.146 88.319C555.331 88.319 551.914 89.562 550.05 91.892 548.73 93.445 548.109 95.464 548.109 97.794L548.109 99.502C548.109 102.22 548.575 104.318 549.818 105.793 550.905 107.113 552.769 108.046 555.021 108.434L565.195 110.298C566.826 110.608 567.525 111.152 567.991 111.851 568.69 112.783 568.845 113.792 568.845 115.889 568.845 117.365 568.767 119.074 567.525 120.083 566.438 121.015 564.652 121.248 562.167 121.248L559.138 121.248C555.436 121.248 553.039 120.334 551.051 117.789 550.756 117.411 550.21 117.351 549.864 117.684L546.818 120.617C546.535 120.89 546.491 121.34 546.724 121.657 549.626 125.613 552.662 126.607 558.75 126.607L562.633 126.607C567.216 126.607 570.322 125.675 572.263 124.044 574.36 122.257 575.214 119.772 575.214 116.822L575.214 114.569C575.213 111.386 574.592 108.59 572.107 106.804zM601.918 120.782L598.515 120.782C596.185 120.782 594.322 120.161 593.312 118.608 592.302 117.21 592.069 115.424 592.069 109.677L592.069 94.3 599.665 94.3C600.102 94.3 600.456 93.946 600.456 93.509L600.456 89.733C600.456 89.296 600.102 88.942 599.665 88.942L592.069 88.942 592.069 76.53C592.069 76.093 591.715 75.739 591.278 75.739L586.182 75.739C585.745 75.739 585.391 76.093 585.391 76.53L585.391 88.941 580.513 88.941C580.076 88.941 579.722 89.295 579.722 89.732L579.722 93.508C579.722 93.945 580.076 94.299 580.513 94.299L585.391 94.299 585.391 113.326C585.391 118.141 586.4 121.092 588.187 122.957 590.051 124.821 592.613 126.141 597.739 126.141L601.918 126.141C602.355 126.141 602.709 125.787 602.709 125.35L602.709 121.574C602.71 121.137 602.356 120.782 601.918 120.782zM611.911 72.089C609.27 72.089 607.639 73.953 607.639 76.438 607.639 78.845 609.348 80.71 611.911 80.71 614.474 80.71 616.26 78.846 616.26 76.438 616.259 73.953 614.551 72.089 611.911 72.089zM614.459 88.941L609.363 88.941C608.926 88.941 608.572 89.295 608.572 89.732L608.572 125.349C608.572 125.786 608.926 126.14 609.363 126.14L614.459 126.14C614.896 126.14 615.25 125.786 615.25 125.349L615.25 89.732C615.25 89.296 614.896 88.941 614.459 88.941zM644.052 120.782L640.649 120.782C638.319 120.782 636.456 120.161 635.446 118.608 634.437 117.21 634.203 115.424 634.203 109.677L634.203 94.3 641.799 94.3C642.236 94.3 642.59 93.946 642.59 93.509L642.59 89.733C642.59 89.296 642.236 88.942 641.799 88.942L634.203 88.942 634.203 76.53C634.203 76.093 633.849 75.739 633.412 75.739L628.316 75.739C627.879 75.739 627.525 76.093 627.525 76.53L627.525 88.941 622.647 88.941C622.21 88.941 621.856 89.295 621.856 89.732L621.856 93.508C621.856 93.945 622.21 94.299 622.647 94.299L627.525 94.299 627.525 113.326C627.525 118.141 628.534 121.092 630.321 122.957 632.185 124.821 634.747 126.141 639.873 126.141L644.052 126.141C644.489 126.141 644.843 125.787 644.843 125.35L644.843 121.574C644.843 121.137 644.489 120.782 644.052 120.782zM679.126 88.941L674.03 88.941C673.593 88.941 673.239 89.295 673.239 89.732L673.239 110.142C673.239 115.19 673.161 117.52 672.152 119.151 670.987 121.015 668.813 121.248 666.56 121.248L663.143 121.248C660.891 121.248 658.717 121.015 657.552 119.151 656.464 117.52 656.387 115.19 656.387 110.142L656.387 89.732C656.387 89.295 656.033 88.941 655.596 88.941L650.5 88.941C650.063 88.941 649.709 89.295 649.709 89.732L649.709 113.637C649.709 118.53 650.719 121.403 652.427 123.267 654.213 125.209 657.164 126.607 662.368 126.607L667.261 126.607C672.464 126.607 675.415 125.209 677.202 123.267 678.988 121.403 679.92 118.53 679.92 113.637L679.92 89.732C679.918 89.296 679.563 88.941 679.126 88.941zM708.175 120.782L704.773 120.782C702.443 120.782 700.579 120.161 699.57 118.608 698.56 117.21 698.327 115.424 698.327 109.677L698.327 94.3 705.923 94.3C706.36 94.3 706.714 93.946 706.714 93.509L706.714 89.733C706.714 89.296 706.36 88.942 705.923 88.942L698.327 88.942 698.327 76.53C698.327 76.093 697.973 75.739 697.536 75.739L692.44 75.739C692.003 75.739 691.649 76.093 691.649 76.53L691.649 88.941 686.771 88.941C686.334 88.941 685.98 89.295 685.98 89.732L685.98 93.508C685.98 93.945 686.334 94.299 686.771 94.299L691.649 94.299 691.649 113.326C691.649 118.141 692.659 121.092 694.445 122.957 696.309 124.821 698.871 126.141 703.997 126.141L708.176 126.141C708.613 126.141 708.967 125.787 708.967 125.35L708.967 121.574C708.967 121.137 708.612 120.782 708.175 120.782zM743.84 103.464L743.84 100.823C743.84 96.319 742.597 93.212 740.19 91.193 738.093 89.329 734.909 88.319 730.405 88.319L726.522 88.319C722.639 88.319 718.911 89.096 716.426 91.659 714.252 93.756 712.543 97.328 712.543 107.424 712.543 117.676 714.33 121.326 716.659 123.5 719.222 125.907 722.794 126.607 726.522 126.607L731.026 126.607C735.22 126.607 738.016 125.985 740.268 124.743 741.297 124.1 742.113 123.403 742.937 122.521 743.229 122.208 743.207 121.712 742.898 121.416L740.047 118.677C739.744 118.386 739.261 118.377 738.959 118.67 738.455 119.158 737.95 119.604 737.317 120.007 735.609 120.939 733.512 121.25 730.949 121.25L727.066 121.25C724.581 121.25 722.873 120.628 721.785 119.464 719.999 117.756 719.61 114.571 719.533 110.145L736.929 110.145C742.83 110.143 743.84 107.658 743.84 103.464zM735.142 105.173L719.532 105.173C719.609 100.591 719.92 97.251 721.784 95.465 722.871 94.3 724.502 93.678 726.987 93.678L729.938 93.678C732.423 93.678 734.287 94.144 735.53 95.387 736.85 96.63 737.238 98.493 737.238 100.667L737.238 102.997C737.238 104.473 736.617 105.173 735.142 105.173z"/>
    <path fill="#0AC8FF" d="M146.8,62.478 L112.319,2.754 C111.556,1.432 109.957,0.509 108.431,0.509 L39.467,0.509 C37.941,0.509 36.342,1.432 35.578,2.754 L1.097,62.478 C0.334,63.8 0.334,65.646 1.097,66.968 L35.578,126.692 C36.341,128.014 37.94,128.937 39.467,128.937 L108.43,128.937 C109.956,128.937 111.555,128.014 112.318,126.692 L146.798,66.97 C147.564,65.647 147.564,63.799 146.8,62.478 Z M41.279,121.309 L41.279,67.515 L72.337,67.515 L87.866,94.412 L41.279,121.309 Z M90.658,99.247 L104.575,123.352 L48.907,123.352 L90.658,99.247 Z M41.279,8.137 L87.866,35.034 L72.337,61.931 L41.279,61.931 L41.279,8.137 Z M48.907,6.093 L104.575,6.093 L90.658,30.198 L48.907,6.093 Z M77.172,64.723 L92.701,37.826 L139.288,64.723 L92.701,91.62 L77.172,64.723 Z M137.244,57.095 L95.493,32.99 L109.41,8.885 L137.244,57.095 Z M35.695,13.72 L35.695,61.93 L7.861,61.93 L35.695,13.72 Z M7.861,67.515 L35.695,67.515 L35.695,115.725 L7.861,67.515 Z M109.411,120.561 L95.494,96.456 L137.245,72.351 L109.411,120.561 Z"/>
  </g>
</svg>
